<svg xmlns="http://www.w3.org/2000/svg" viewBox="0 0 63 63" width="63" height="63">
	<defs>
		<clipPath clipPathUnits="userSpaceOnUse" id="cp1">
			<path d="M0 0L62 0L62 63L0 63Z" />
		</clipPath>
	</defs>
	<style>
		tspan { white-space:pre }
		.shp0 { fill: #c9c9c9 } 
		.shp1 { fill: #ed145b } 
	</style>
	<g id="Page 1" clip-path="url(#cp1)">
		<path id="Path 1" class="shp0" d="M3.37,56.51l15.75,-19.17c0.19,-0.21 0.42,-0.25 0.54,-0.25c0.09,0 0.35,0.02 0.55,0.23l13.49,13.93c0.84,0.87 2.06,1.28 3.26,1.1c1.2,-0.18 2.24,-0.94 2.78,-2.03l7.6,-15.2c0.18,-0.36 0.52,-0.41 0.65,-0.41c0.12,0 0.47,0.03 0.67,0.39l9.72,17.82c0.4,0.73 1.31,1 2.04,0.6c0.73,-0.4 1,-1.31 0.6,-2.04l-9.72,-17.82c-0.67,-1.23 -1.95,-1.98 -3.35,-1.95c-1.4,0.03 -2.66,0.82 -3.28,2.07l-7.6,15.2c-0.15,0.3 -0.41,0.38 -0.55,0.4c-0.14,0.02 -0.41,0.02 -0.65,-0.22l-13.49,-13.93c-0.72,-0.75 -1.7,-1.16 -2.78,-1.14c-1.04,0.03 -2.03,0.49 -2.75,1.31l-15.78,19.21c-0.53,0.64 -0.43,1.59 0.21,2.11c0.28,0.23 0.62,0.34 0.95,0.34c0.43,0 0.86,-0.19 1.16,-0.55z" />
		<path id="Path 2" class="shp1" d="M49.87,46.72l11.2,-27.32c0.31,-0.76 -0.05,-1.64 -0.82,-1.96c-0.76,-0.31 -1.64,0.05 -1.96,0.82l-11.18,27.29c-0.18,0.42 -0.56,0.45 -0.71,0.45c-0.14,0 -0.47,-0.06 -0.64,-0.4l-3.71,-21.51c-0.01,-0.08 -0.04,-0.17 -0.07,-0.25c-0.46,-1.28 -1.58,-2.22 -2.92,-2.44c-1.35,-0.22 -2.71,0.31 -3.55,1.38l-15.58,19.87c-0.24,0.3 -0.66,0.38 -0.95,0.19l-16.07,-10.95c-0.68,-0.47 -1.62,-0.29 -2.08,0.39c-0.47,0.69 -0.29,1.62 0.39,2.08l16.1,10.98c1.63,1.05 3.77,0.69 4.97,-0.84l15.58,-19.87c0.24,-0.31 0.57,-0.3 0.7,-0.28c0.12,0.02 0.39,0.1 0.54,0.39l3.71,21.51c0.01,0.09 0.04,0.17 0.07,0.25c0.52,1.46 1.85,2.43 3.4,2.48c0.04,0 0.09,0 0.13,0c1.49,0 2.83,-0.87 3.44,-2.28z" />
		<path id="Path 3" class="shp0" d="M62.07,61.5c0,-0.83 -0.67,-1.5 -1.5,-1.5h-50.52c-4.26,0 -7.05,-2.99 -7.05,-6.96v-51.03c0,-0.83 -0.67,-1.5 -1.5,-1.5c-0.83,0 -1.5,0.67 -1.5,1.5v51.03c0,5.68 4.08,9.97 10.05,9.97h50.52c0.83,0 1.5,-0.67 1.5,-1.5z" />
	</g>
</svg>