<svg xmlns="http://www.w3.org/2000/svg" viewBox="0 0 63 53" width="63" height="53">
	<defs>
		<clipPath clipPathUnits="userSpaceOnUse" id="cp1">
			<path d="M0 0L63 0L63 53L0 53Z" />
		</clipPath>
	</defs>
	<style>
		tspan { white-space:pre }
		.shp0 { fill: #c9c9c9 } 
		.shp1 { fill: #ed145b } 
	</style>
	<g id="Page 1" clip-path="url(#cp1)">
		<path id="Path 1" class="shp0" d="M20,1.5c0,-0.83 0.67,-1.5 1.5,-1.5h19c0.83,0 1.5,0.67 1.5,1.5l0,5.5h11.5c5.25,0 9.5,4.25 9.5,9.5v27c0,5.25 -4.25,9.5 -9.5,9.5h-44c-5.25,0 -9.5,-4.25 -9.5,-9.5v-27c0,-5.25 4.25,-9.5 9.5,-9.5h10.5zM39,3h-16l0,4h16zM60,16.5c0,-3.59 -2.91,-6.5 -6.5,-6.5h-44c-3.59,0 -6.5,2.91 -6.5,6.5v27c0,3.59 2.91,6.5 6.5,6.5h44c3.59,0 6.5,-2.91 6.5,-6.5z" />
		<path id="Path 2" class="shp1" d="M31.03,43.67c-7.09,0 -12.86,-5.77 -12.86,-12.86c0,-7.09 5.77,-12.86 12.86,-12.86c7.09,0 12.86,5.77 12.86,12.86c0,7.09 -5.77,12.86 -12.86,12.86zM31.03,20.94c-5.44,0 -9.86,4.43 -9.86,9.86c0,5.44 4.42,9.86 9.86,9.86c5.44,0 9.86,-4.42 9.86,-9.86c0,-5.44 -4.42,-9.86 -9.86,-9.86zM13.14,16.85c0,1.52 -1.24,2.76 -2.76,2.76c-1.52,0 -2.76,-1.24 -2.76,-2.76c0,-1.52 1.24,-2.76 2.76,-2.76c1.52,0 2.76,1.24 2.76,2.76z" />
		<path id="Path 3" class="shp0" d="M56,51v-48.5c0,-0.83 -1.1,-1.5 -1.93,-1.5h-8c-0.83,0 -1.07,0.67 -1.07,1.5v5.5c0,0.83 0.67,1.5 1.5,1.5c0.83,0 1.5,-0.67 1.5,-1.5v-4h5v47c0,0.83 0.67,1.5 1.5,1.5c0.83,0 1.5,-0.67 1.5,-1.5z" />
	</g>
</svg>