<svg xmlns="http://www.w3.org/2000/svg" viewBox="0 0 63 64" width="63" height="64">
	<defs>
		<clipPath clipPathUnits="userSpaceOnUse" id="cp1">
			<path d="M0 1L63 1L63 64L0 64Z" />
		</clipPath>
	</defs>
	<style>
		tspan { white-space:pre }
		.shp0 { fill: #c9c9c9 } 
		.shp1 { fill: #ed145b } 
	</style>
	<g id="Page 1" clip-path="url(#cp1)">
		<path id="Path 1" class="shp0" d="M63,37.42c0,5.25 -4.25,9.5 -9.5,9.5h-44c-5.25,0 -9.5,-4.25 -9.5,-9.5v-27c0,-5.25 4.25,-9.5 9.5,-9.5h44c5.25,0 9.5,4.25 9.5,9.5zM60,10.42c0,-3.59 -2.91,-6.5 -6.5,-6.5h-44c-3.59,0 -6.5,2.91 -6.5,6.5l0,23.5h57zM3.17,36.92c0.59,4.13 3.6,7 7.6,7h41.41c4,0 7.01,-2.87 7.6,-7z" />
		<path id="Path 2" class="shp1" d="M35.35,30.75l8.33,-8.33c0.58,-0.59 0.58,-1.54 0,-2.12c-0.59,-0.58 -1.54,-0.58 -2.12,0l-8.33,8.33c-0.59,0.59 -0.59,1.54 0,2.12c0.29,0.29 0.68,0.44 1.06,0.44c0.38,0 0.77,-0.15 1.06,-0.44zM22.43,32.16l18.05,-18.06c0.59,-0.59 0.59,-1.53 0,-2.12c-0.59,-0.59 -1.54,-0.59 -2.12,0l-18.06,18.05c-0.58,0.59 -0.58,1.54 0,2.12c0.29,0.29 0.68,0.44 1.06,0.44c0.38,0 0.77,-0.15 1.06,-0.44z" />
		<path id="Path 3" class="shp0" d="M33,53.92v-8c0,-0.83 -0.67,-1.5 -1.5,-1.5c-0.83,0 -1.5,0.67 -1.5,1.5v8c0,0.83 0.67,1.5 1.5,1.5c0.83,0 1.5,-0.67 1.5,-1.5zM42.46,62.5c0,-5.22 -5.02,-9.46 -11.18,-9.46c-6.16,0 -11.18,4.24 -11.18,9.46c0,0.83 0.67,1.5 1.5,1.5c0.83,0 1.5,-0.67 1.5,-1.5c0,-3.56 3.67,-6.46 8.18,-6.46c4.51,0 8.18,2.89 8.18,6.46c0,0.83 0.67,1.5 1.5,1.5c0.83,0 1.5,-0.67 1.5,-1.5z" />
	</g>
</svg>