<svg xmlns="http://www.w3.org/2000/svg" viewBox="0 0 65 65" width="65" height="65">
	<defs>
		<clipPath clipPathUnits="userSpaceOnUse" id="cp1">
			<path d="M1 1L64 1L64 64L1 64Z" />
		</clipPath>
	</defs>
	<style>
		tspan { white-space:pre }
		.shp0 { fill: #c9c9c9 } 
		.shp1 { fill: #ed145b } 
	</style>
	<g id="Page 1" clip-path="url(#cp1)">
		<path id="Path 1" class="shp0" d="M32.66,64c-2.69,0 -5,-1.63 -5.9,-4.16l-0.96,-2.68c-2.02,-0.55 -3.95,-1.34 -5.76,-2.36l-2.55,1.21c-0.87,0.42 -1.78,0.63 -2.71,0.63c-2.11,0 -4.14,-1.14 -5.3,-2.97c-1.16,-1.83 -1.28,-4.02 -0.34,-6l1.2,-2.54c-1.04,-1.84 -1.83,-3.76 -2.38,-5.75l-2.74,-0.96c-2.57,-0.91 -4.22,-3.26 -4.22,-5.97c0,-2.65 1.61,-4.94 4.11,-5.83l2.6,-0.98c0.55,-1.99 1.23,-3.84 2.01,-5.52l-1.01,-2.83c-0.87,-1.88 -0.72,-3.98 0.4,-5.75c1.23,-1.94 3.39,-3.15 5.65,-3.15c0.95,0 1.87,0.21 2.75,0.62l2.93,1.39c1.66,-0.9 3.4,-1.6 5.21,-2.11l1.11,-3.12c0.9,-2.53 3.22,-4.17 5.9,-4.17c2.69,0 5,1.63 5.9,4.17l1.15,3.23c1.73,0.51 3.39,1.21 4.98,2.09l3.13,-1.49c0.87,-0.42 1.78,-0.62 2.71,-0.62c2.11,0 4.14,1.13 5.29,2.96c1.16,1.83 1.28,4.02 0.34,6.01l-1.48,3.12c0.88,1.59 1.58,3.26 2.1,4.99l3.22,1.14c2.53,0.9 4.16,3.22 4.16,5.9c0,2.69 -1.64,5 -4.16,5.9l-3.1,1.1c-0.51,1.82 -1.22,3.58 -2.12,5.25l1.38,2.91c0.94,1.98 0.82,4.17 -0.34,6.01c-1.16,1.83 -3.18,2.96 -5.29,2.96h0c-0.93,0 -1.84,-0.21 -2.71,-0.63l-2.74,-1.3c-1.75,1 -3.6,1.79 -5.52,2.35l-0.99,2.79c-0.9,2.53 -3.22,4.16 -5.9,4.16zM20.11,51.6c0.27,0 0.54,0.07 0.78,0.22c1.98,1.2 4.13,2.08 6.41,2.62c0.49,0.12 0.9,0.48 1.07,0.96l1.22,3.44c0.57,1.6 1.96,2.17 3.08,2.17c1.11,0 2.51,-0.57 3.07,-2.17l1.26,-3.53c0.17,-0.47 0.56,-0.83 1.04,-0.95c2.17,-0.55 4.25,-1.44 6.18,-2.63c0.43,-0.27 0.97,-0.3 1.43,-0.08l3.47,1.65c1.53,0.73 3.3,0.16 4.18,-1.23c0.35,-0.55 0.84,-1.7 0.16,-3.11l-1.66,-3.49c-0.02,-0.03 -0.06,-0.14 -0.08,-0.18c-0.16,-0.43 -0.15,-0.96 0.08,-1.35c1.08,-1.85 1.88,-3.84 2.39,-5.91c0.11,-0.47 0.45,-0.86 0.9,-1.04c0.11,-0.05 0.18,-0.08 0.26,-0.11l3.65,-1.3c1.6,-0.57 2.17,-1.96 2.17,-3.08c0,-1.11 -0.57,-2.5 -2.17,-3.08l-3.64,-1.29c-0.13,-0.05 -0.26,-0.1 -0.39,-0.16c-0.41,-0.18 -0.76,-0.56 -0.87,-1c-0.52,-1.98 -1.32,-3.88 -2.37,-5.66c-0.23,-0.39 -0.27,-0.87 -0.11,-1.3c0.06,-0.16 0.12,-0.31 0.2,-0.47l1.66,-3.49c0.67,-1.42 0.19,-2.56 -0.17,-3.11c-0.88,-1.39 -2.66,-1.96 -4.18,-1.23l-3.49,1.66c-0.16,0.08 -0.32,0.14 -0.48,0.2c-0.43,0.16 -0.9,0.12 -1.3,-0.11c-1.77,-1.05 -3.67,-1.84 -5.64,-2.37c-0.44,-0.12 -0.8,-0.42 -0.99,-0.84c-0.07,-0.16 -0.13,-0.3 -0.18,-0.44l-1.29,-3.64c-0.57,-1.6 -1.96,-2.17 -3.08,-2.17c-1.11,0 -2.51,0.57 -3.08,2.17l-1.29,3.64c-0.03,0.08 -0.06,0.17 -0.1,0.25c-0.19,0.43 -0.6,0.82 -1.05,0.94c-2.06,0.5 -4.04,1.3 -5.88,2.38c-0.41,0.24 -0.91,0.27 -1.35,0.08c-0.07,-0.03 -0.14,-0.06 -0.2,-0.08l-3.49,-1.66c-1.6,-0.76 -3.62,-0.08 -4.57,1.42c-0.34,0.53 -0.81,1.63 -0.19,2.93c0.02,0.05 0.04,0.09 0.06,0.14l1.25,3.49c0.06,0.16 0.09,0.33 0.09,0.51c0,0.23 -0.05,0.46 -0.16,0.67c-0.92,1.84 -1.68,3.95 -2.27,6.27c-0.12,0.47 -0.47,0.86 -0.92,1.03l-3.34,1.26c-1.35,0.48 -2.15,1.61 -2.15,3.02c0,1.14 0.58,2.56 2.22,3.14l3.49,1.22c0.48,0.17 0.85,0.57 0.96,1.07c0.53,2.22 1.41,4.37 2.64,6.39c0.26,0.43 0.29,0.96 0.07,1.42l-1.54,3.27c-0.68,1.42 -0.19,2.56 0.16,3.12c0.88,1.39 2.66,1.96 4.19,1.24l3.26,-1.55c0.21,-0.1 0.42,-0.15 0.64,-0.15z" />
		<path id="Path 2" class="shp1" d="M32.59,45.53c-6.94,0 -12.59,-5.65 -12.59,-12.59c0,-6.94 5.65,-12.59 12.59,-12.59c6.94,0 12.59,5.65 12.59,12.59c0,6.94 -5.65,12.59 -12.59,12.59zM32.59,23.35c-5.29,0 -9.59,4.3 -9.59,9.59c0,5.29 4.3,9.59 9.59,9.59c5.29,0 9.59,-4.3 9.59,-9.59c0,-5.29 -4.3,-9.59 -9.59,-9.59z" />
		<path id="Path 3" class="shp0" d="M32.59,52.37c-10.71,0 -19.42,-8.71 -19.42,-19.42c0,-10.71 8.71,-19.42 19.42,-19.42c10.71,0 19.42,8.71 19.42,19.42c0,10.71 -8.71,19.42 -19.42,19.42zM32.59,16.52c-9.06,0 -16.42,7.37 -16.42,16.42c0,9.06 7.37,16.42 16.42,16.42c9.06,0 16.42,-7.37 16.42,-16.42c0,-9.06 -7.37,-16.42 -16.42,-16.42z" />
	</g>
</svg>