<svg xmlns="http://www.w3.org/2000/svg" viewBox="0 0 62 63" width="62" height="63">
	<defs>
		<clipPath clipPathUnits="userSpaceOnUse" id="cp1">
			<path d="M0 0L62 0L62 63L0 63Z" />
		</clipPath>
	</defs>
	<style>
		tspan { white-space:pre }
		.shp0 { fill: #c9c9c9 } 
		.shp1 { fill: #ed145b } 
	</style>
	<g id="Page 1" clip-path="url(#cp1)">
		<path id="Path 1" class="shp0" d="M37.24,44.76c-0.08,0 -0.16,-0.01 -0.23,-0.02c-0.56,-0.09 -1.03,-0.49 -1.2,-1.04l-4.07,-13.09l-13.09,-4.07c-0.54,-0.17 -0.95,-0.63 -1.04,-1.2c-0.09,-0.56 0.15,-1.13 0.61,-1.46l11.19,-7.91l-0.18,-13.7c-0.01,-0.57 0.31,-1.1 0.82,-1.36c0.51,-0.26 1.12,-0.21 1.58,0.13l10.98,8.2l12.98,-4.4c0.54,-0.18 1.14,-0.04 1.54,0.36c0.4,0.4 0.54,1 0.36,1.54l-4.4,12.98l8.2,10.99c0.34,0.46 0.39,1.07 0.13,1.58c-0.26,0.51 -0.76,0.83 -1.36,0.82l-13.7,-0.17l-7.92,11.19c-0.28,0.4 -0.74,0.63 -1.22,0.63zM22.44,24.59l10.94,3.4c0.47,0.15 0.84,0.52 0.99,0.99l3.4,10.94l6.61,-9.35c0.29,-0.4 0.7,-0.65 1.25,-0.63l11.45,0.15l-6.85,-9.18c-0.29,-0.4 -0.38,-0.91 -0.22,-1.38l3.68,-10.85l-10.85,3.68c-0.47,0.16 -0.98,0.08 -1.38,-0.22l-9.18,-6.85l0.15,11.45c0.01,0.49 -0.23,0.96 -0.63,1.24zM3,63c-0.77,0 -1.53,-0.29 -2.12,-0.88c-1.17,-1.17 -1.17,-3.07 0,-4.24l21.28,-21.28c1.17,-1.17 3.07,-1.17 4.24,0c1.17,1.17 1.17,3.07 0,4.24l-21.28,21.28c-0.59,0.59 -1.35,0.88 -2.12,0.88z" />
		<path id="Path 2" class="shp1" d="M60.86,18.28c-1.05,-1.05 -2.75,-1.05 -3.8,0c-1.05,1.05 -1.05,2.75 0,3.8c1.05,1.05 2.75,1.05 3.8,0c1.05,-1.05 1.05,-2.75 0,-3.8zM43.36,0.79c-1.05,-1.05 -2.75,-1.05 -3.8,0c-1.05,1.05 -1.05,2.75 0,3.8c1.05,1.05 2.75,1.05 3.8,0c1.05,-1.05 1.05,-2.75 0,-3.8zM52.63,36.81c-1.05,-1.05 -2.75,-1.05 -3.8,0c-1.05,1.05 -1.05,2.75 0,3.79c1.05,1.05 2.75,1.05 3.8,0c1.05,-1.05 1.05,-2.75 0,-3.79zM25.87,10.05c-1.05,-1.05 -2.75,-1.05 -3.8,0c-1.05,1.05 -1.05,2.75 0,3.79c1.05,1.05 2.75,1.05 3.8,0c1.05,-1.05 1.05,-2.75 0,-3.79z" />
	</g>
</svg>