<svg xmlns="http://www.w3.org/2000/svg" viewBox="0 0 56 63" width="56" height="63">
	<defs>
		<clipPath clipPathUnits="userSpaceOnUse" id="cp1">
			<path d="M0 0L55 0L55 63L0 63Z" />
		</clipPath>
	</defs>
	<style>
		tspan { white-space:pre }
		.shp0 { fill: #c9c9c9 } 
		.shp1 { fill: #ed145b } 
	</style>
	<g id="Page 1" clip-path="url(#cp1)">
		<path id="Path 1" class="shp0" d="M55,53.5c0,5.25 -4.25,9.5 -9.5,9.5h-36c-5.25,0 -9.5,-4.25 -9.5,-9.5v-44c0,-5.25 4.25,-9.5 9.5,-9.5h36c5.25,0 9.5,4.25 9.5,9.5v8.54c0.05,0.15 0.07,0.3 0.07,0.46c0,0.16 -0.03,0.32 -0.07,0.46zM52,9.5c0,-3.59 -2.91,-6.5 -6.5,-6.5h-36c-3.59,0 -6.5,2.91 -6.5,6.5v7.5h49zM3,20v33.5c0,3.59 2.91,6.5 6.5,6.5h36c3.59,0 6.5,-2.91 6.5,-6.5l0,-33.5z" />
		<path id="Path 2" class="shp1" d="M14.25,8.59c-1.41,0 -2.56,1.14 -2.56,2.56c0,1.41 1.14,2.56 2.56,2.56c1.41,0 2.56,-1.14 2.56,-2.56c0,-1.41 -1.14,-2.56 -2.56,-2.56zM23.45,8.59c-1.41,0 -2.56,1.14 -2.56,2.56c0,1.41 1.14,2.56 2.56,2.56c1.41,0 2.56,-1.14 2.56,-2.56c0,-1.41 -1.14,-2.56 -2.56,-2.56zM31.63,8.59c-1.41,0 -2.56,1.14 -2.56,2.56c0,1.41 1.14,2.56 2.56,2.56c1.41,0 2.56,-1.14 2.56,-2.56c0,-1.41 -1.14,-2.56 -2.56,-2.56zM38.31,45.16l7.97,-5.42c0.8,-0.59 1.23,-1.52 1.15,-2.51c-0.08,-0.99 -0.65,-1.85 -1.54,-2.3l-7.74,-3.96c-0.74,-0.38 -1.64,-0.08 -2.02,0.65c-0.38,0.74 -0.08,1.64 0.65,2.02l7.49,3.83l-7.65,5.2c-0.68,0.47 -0.86,1.4 -0.4,2.08c0.29,0.43 0.76,0.66 1.24,0.66c0.29,0 0.58,-0.08 0.84,-0.26zM21.52,48.77c0.47,-0.69 0.29,-1.62 -0.4,-2.08l-7.65,-5.2l7.49,-3.83c0.74,-0.38 1.03,-1.28 0.65,-2.02c-0.38,-0.74 -1.28,-1.03 -2.02,-0.65l-7.74,3.96c-0.88,0.45 -1.46,1.31 -1.54,2.3c-0.08,0.99 0.35,1.93 1.19,2.54l7.92,5.39c0.26,0.18 0.55,0.26 0.84,0.26c0.48,0 0.95,-0.23 1.24,-0.66zM27.44,51.26l6.58,-21.11c0.25,-0.79 -0.2,-1.63 -0.99,-1.88c-0.79,-0.25 -1.63,0.19 -1.88,0.98l-6.58,21.11c-0.25,0.79 0.2,1.63 0.99,1.88c0.15,0.05 0.3,0.07 0.45,0.07c0.64,0 1.23,-0.41 1.43,-1.05z" />
	</g>
</svg>