<svg xmlns="http://www.w3.org/2000/svg" viewBox="0 0 30 30" width="30" height="30">
	<defs>
		<clipPath clipPathUnits="userSpaceOnUse" id="cp1">
			<path d="M0 1L29 1L29 30L0 30Z" />
		</clipPath>
	</defs>
	<style>
		tspan { white-space:pre }
		.shp0 { fill: white } 
	</style>
	<g id="Page 1" clip-path="url(#cp1)">
		<path id="Path 1" class="shp0" d="M11.46,23.75c-6.32,0 -11.46,-5.14 -11.46,-11.46c0,-6.32 5.14,-11.46 11.46,-11.46c6.32,0 11.46,5.14 11.46,11.46c0,2.78 -1,5.34 -2.66,7.33l8.6,8.6c0.41,0.41 0.41,1.07 0,1.47c-0.2,0.2 -0.47,0.31 -0.74,0.31c-0.27,0 -0.53,-0.1 -0.74,-0.31l-8.6,-8.6c-1.99,1.66 -4.54,2.66 -7.33,2.66zM11.46,2.92c-5.17,0 -9.38,4.21 -9.38,9.38c0,5.17 4.21,9.38 9.38,9.38c5.17,0 9.38,-4.21 9.38,-9.38c0,-5.17 -4.21,-9.38 -9.38,-9.38z" />
	</g>
</svg>