<svg xmlns="http://www.w3.org/2000/svg" viewBox="0 0 43 63" width="43" height="63">
	<defs>
		<clipPath clipPathUnits="userSpaceOnUse" id="cp1">
			<path d="M0 0L43 0L43 63L0 63Z" />
		</clipPath>
	</defs>
	<style>
		tspan { white-space:pre }
		.shp0 { fill: #c9c9c9 } 
		.shp1 { fill: #ed145b } 
	</style>
	<g clip-path="url(#cp1)">
		<path class="shp0" d="M43,53.5c0,5.25 -4.25,9.5 -9.5,9.5h-24c-5.25,0 -9.5,-4.25 -9.5,-9.5v-44c0,-5.25 4.25,-9.5 9.5,-9.5h24c5.25,0 9.5,4.25 9.5,9.5zM33.5,3h-24c-3.07,0 -5.65,2.13 -6.33,5l36.65,0c-0.68,-2.87 -3.25,-5 -6.33,-5zM9.5,60h24c3.42,0 6.23,-2.64 6.48,-6l-36.96,0c0.26,3.36 3.06,6 6.48,6zM3,51h37v-40h-37z" />
		<path class="shp1" d="M21.94,3.71c-1.11,0 -2,0.89 -2,2c0,1.11 0.89,2 2,2c1.11,0 2,-0.89 2,-2c0,-1.11 -0.89,-2 -2,-2zM26.07,56.5c0,-0.83 -0.67,-1.5 -1.5,-1.5h-5c-0.83,0 -1.5,0.67 -1.5,1.5c0,0.83 0.67,1.5 1.5,1.5h5c0.83,0 1.5,-0.67 1.5,-1.5zM26,37.3c0.01,-10.52 -7.75,-11.44 -7.83,-11.44c-0.82,-0.07 -1.53,0.57 -1.6,1.39c-0.07,0.82 0.54,1.6 1.36,1.68c0.52,0.05 5.09,0.83 5.08,8.36c0,0.83 0.67,1.72 1.5,1.72h0c0.83,0 1.5,-0.87 1.5,-1.7zM32.86,36.45c0.02,-16.05 -11.62,-17.18 -11.73,-17.19c-0.81,-0.1 -1.55,0.56 -1.61,1.39c-0.06,0.83 0.55,1.56 1.38,1.62c0.09,0.01 8.98,0.88 8.96,14.17c0,0.83 0.67,1.56 1.5,1.56h0c0.83,0 1.5,-0.72 1.5,-1.55z" />
	</g>
</svg>