<svg xmlns="http://www.w3.org/2000/svg" viewBox="0 0 63 58" width="63" height="58">
	<defs>
		<clipPath clipPathUnits="userSpaceOnUse" id="cp1">
			<path d="M0 0L63 0L63 58L0 58Z" />
		</clipPath>
	</defs>
	<style>
		tspan { white-space:pre }
		.shp0 { fill: #c9c9c9 } 
		.shp1 { fill: #ed145b } 
	</style>
	<g clip-path="url(#cp1)">
		<path class="shp0" d="M21.49,17.87c0.83,0 1.5,0.67 1.5,1.5c0,0.83 -0.67,1.5 -1.5,1.5h-9.34l4.17,17h34.37l8.16,-17h-10.36c-0.83,0 -1.5,-0.67 -1.5,-1.5c0,-0.83 0.67,-1.5 1.5,-1.5h12.74c0.52,0 0.99,0.26 1.27,0.7c0.27,0.44 0.31,0.98 0.08,1.45l-8.57,17.85h6.98c0.83,0 1.93,0.67 1.93,1.5v11c0,0.83 -1.1,1.5 -1.93,1.5l-3.44,0c-0.55,3.47 -3.55,6.13 -7.17,6.13c-3.62,0 -6.63,-2.66 -7.17,-6.13l-8.75,0c-0.55,3.47 -3.56,6.13 -7.17,6.13c-3.62,0 -6.63,-2.66 -7.17,-6.13h-3.05c-0.73,0 -1.35,-0.52 -1.48,-1.24l-0.36,-2.05l-9.23,-37.94c-0.03,-0.12 -0.04,-0.24 -0.04,-0.35c0,-0.67 -0.67,-1.23 -1.47,-1.23c-0.84,0 -1.49,0.69 -1.49,1.57c0,0.54 0.27,1.04 0.71,1.34c0.69,0.46 0.88,1.39 0.42,2.08c-0.46,0.69 -1.39,0.88 -2.08,0.42c-1.28,-0.85 -2.05,-2.29 -2.05,-3.84c0,-2.52 2.01,-4.57 4.49,-4.57c2.39,0 4.35,1.79 4.47,4.03l1.89,7.79zM43.36,48.87c0.83,-3.1 3.66,-5.4 7.02,-5.4c3.36,0 6.19,2.29 7.02,5.4c0.03,0 0.06,0 0.09,0h2.43v-8h-42.99l1.24,7.08l0.22,0.92h1.88c0.83,-3.1 3.66,-5.4 7.02,-5.4c3.36,0 6.19,2.29 7.02,5.4zM50.38,46.48c-2.35,0 -4.26,1.91 -4.26,4.26c0,2.35 1.91,4.26 4.26,4.26c2.35,0 4.26,-1.91 4.26,-4.26c0,-2.35 -1.91,-4.26 -4.26,-4.26zM27.29,46.48c-2.35,0 -4.26,1.91 -4.26,4.26c0,2.35 1.91,4.26 4.26,4.26c2.35,0 4.26,-1.91 4.26,-4.26c0,-2.35 -1.91,-4.26 -4.26,-4.26z" />
		<path class="shp1" d="M35.71,31.25c-1.4,0 -2.71,-0.71 -3.5,-1.89l-6.69,-10.44c-0.88,-1.31 -0.9,-3.21 -0.04,-4.82c0.74,-1.39 2.01,-2.22 3.39,-2.22h2.06v-9.27c0,-1.47 1.15,-2.73 2.44,-2.73h6c0.36,0 2.56,0.13 2.56,2.73v9.27h0.7c1.42,0 2.7,0.85 3.44,2.27c0.83,1.59 0.76,3.47 -0.17,4.78l-7.04,10.69c-0.75,1.05 -1.88,1.64 -3.13,1.64zM28.86,14.87c-0.29,0 -0.57,0.33 -0.74,0.64c-0.32,0.61 -0.37,1.36 -0.1,1.76l6.69,10.44c0.26,0.39 0.69,0.54 0.99,0.54c0.28,0 0.5,-0.11 0.65,-0.33l7.05,-10.69c0.3,-0.42 0.27,-1.14 -0.02,-1.71c-0.16,-0.31 -0.45,-0.65 -0.77,-0.65h-3.7v-12h-5.42c0,0 0.42,0 0.42,0.01v11.99z" />
	</g>
</svg>