<svg xmlns="http://www.w3.org/2000/svg" viewBox="0 0 63 46" width="63" height="46">
	<defs>
		<clipPath clipPathUnits="userSpaceOnUse" id="cp1">
			<path d="M0 0L63 0L63 46L0 46Z" />
		</clipPath>
	</defs>
	<style>
		tspan { white-space:pre }
		.shp0 { fill: #c9c9c9 } 
		.shp1 { fill: #ed145b } 
	</style>
	<g clip-path="url(#cp1)">
		<path class="shp0" d="M59.77,38.39c0,-15.62 -12.71,-28.33 -28.33,-28.33c-15.62,0 -28.33,12.71 -28.33,28.33c0,0.83 0.67,1.5 1.5,1.5c0.83,0 1.5,-0.67 1.5,-1.5c0,-13.97 11.36,-25.33 25.33,-25.33c13.97,0 25.33,11.36 25.33,25.33c0,0.83 0.67,1.5 1.5,1.5c0.83,0 1.5,-0.67 1.5,-1.5zM28.07,6.5c0,-0.83 -0.67,-1.5 -1.5,-1.5h-16c-0.83,0 -1.5,0.67 -1.5,1.5c0,0.83 0.67,1.5 1.5,1.5h16c0.83,0 1.5,-0.67 1.5,-1.5zM52.07,6.5c0,-0.83 -0.67,-1.5 -1.5,-1.5h-15c-0.83,0 -1.5,0.67 -1.5,1.5c0,0.83 0.67,1.5 1.5,1.5h15c0.83,0 1.5,-0.67 1.5,-1.5z" />
		<path class="shp1" d="M30.76,11.54c-3.05,0 -5.53,-2.48 -5.53,-5.53c0,-3.05 2.48,-5.53 5.53,-5.53c3.05,0 5.53,2.48 5.53,5.53c0,3.05 -2.48,5.53 -5.53,5.53zM30.76,3.47c-1.4,0 -2.53,1.14 -2.53,2.53c0,1.4 1.14,2.53 2.53,2.53c1.4,0 2.53,-1.14 2.53,-2.53c0,-1.4 -1.13,-2.53 -2.53,-2.53zM63,44.5c0,0.83 -0.67,1.5 -1.5,1.5h-6c-0.83,0 -1.5,-0.67 -1.5,-1.5v-6c0,-0.83 0.67,-1.5 1.5,-1.5h6c0.83,0 1.5,0.67 1.5,1.5zM57,43h3v-3h-3zM60,10.5c0,0.83 -0.67,1.5 -1.5,1.5h-6c-0.83,0 -1.5,-0.67 -1.5,-1.5v-7c0,-0.83 0.67,-1.5 1.5,-1.5h6c0.83,0 1.5,0.67 1.5,1.5zM54,9h3v-4h-3zM12,10.5c0,0.83 -0.67,1.5 -1.5,1.5h-6c-0.83,0 -1.5,-0.67 -1.5,-1.5v-7c0,-0.83 0.67,-1.5 1.5,-1.5h6c0.83,0 1.5,0.67 1.5,1.5zM6,9h3v-4h-3zM9,44.5c0,0.83 -0.67,1.5 -1.5,1.5h-6c-0.83,0 -1.5,-0.67 -1.5,-1.5v-6c0,-0.83 0.67,-1.5 1.5,-1.5h6c0.83,0 1.5,0.67 1.5,1.5zM3,43h3v-3h-3z" />
	</g>
</svg>