<svg xmlns="http://www.w3.org/2000/svg" viewBox="0 0 43 63" width="43" height="63">
	<defs>
		<clipPath clipPathUnits="userSpaceOnUse" id="cp1">
			<path d="M0 0L43 0L43 63L0 63Z" />
		</clipPath>
	</defs>
	<style>
		tspan { white-space:pre }
		.shp0 { fill: #c9c9c9 } 
		.shp1 { fill: #ed145b } 
	</style>
	<g clip-path="url(#cp1)">
		<path class="shp0" d="M10.59,36.92c-4.2,0 -7.85,-2.21 -9.08,-5.5c-1.11,-2.94 -1.52,-5.28 -1.52,-8.64c0,-6.06 5.15,-20.17 5.74,-21.76v0c0,0 0,0 0,-0.01c0,0 0,-0.01 0,-0.01c0,-0.01 0.01,-0.03 0.01,-0.03h0c0.01,-0.02 0.02,-0.05 0.03,-0.06c0.32,-0.75 1.18,-1.11 1.93,-0.81c0.76,0.3 1.14,1.15 0.85,1.92c0,0.01 0,0.01 -0.01,0.01c-0.05,0.15 -0.96,3.54 3.58,12.05c1.43,2.68 3.26,5.61 5.45,8.71c0.88,1.26 2.52,4.19 2.52,6.31c0,4.31 -4.27,7.82 -9.51,7.82zM6.39,8.34c-1.56,4.8 -3.39,11.14 -3.39,14.44c0,3 0.35,4.99 1.33,7.59c0.78,2.09 3.36,3.55 6.27,3.55c3.59,0 6.51,-2.16 6.51,-4.82c0,-0.94 -0.9,-3.04 -1.97,-4.59c-2.25,-3.19 -4.15,-6.23 -5.64,-9.01c-1.52,-2.85 -2.49,-5.21 -3.1,-7.15z" />
		<path class="shp1" d="M12.26,47.22c-0.9,-1.27 -1.57,-2.37 -2.08,-3.32c-1.94,-3.63 -1.37,-4.98 -1.37,-4.98c0,0 -2.12,5.7 -2.12,7.97c0,1.21 0.14,2 0.53,3.04c0.37,0.98 1.51,1.69 2.87,1.69c1.65,0 3,-1.06 3,-2.37c0,-0.56 -0.46,-1.49 -0.84,-2.04z" />
		<path class="shp0" d="M36.69,63c-0.4,0 -0.8,-0.04 -1.19,-0.13c-13.31,-2.84 -18.87,-12.24 -21,-17.59c-0.91,-2.27 -0.37,-4.86 1.36,-6.59c1.16,-1.16 2.69,-1.79 4.32,-1.79c2.24,0 4.3,1.22 5.37,3.19c2.07,3.81 6.05,8.93 13.28,11.68c1.82,0.69 3.15,2.24 3.56,4.16c0.42,1.94 -0.17,3.94 -1.58,5.35c-1.09,1.09 -2.59,1.71 -4.12,1.71zM20.18,39.91c-0.83,0 -1.61,0.32 -2.2,0.91c-0.88,0.88 -1.15,2.2 -0.69,3.36c1.91,4.79 6.89,13.21 18.84,15.76c0.9,0.19 1.89,-0.11 2.56,-0.77c0.68,-0.68 0.97,-1.65 0.76,-2.6c-0.2,-0.93 -0.81,-1.65 -1.69,-1.98c-8.1,-3.08 -12.55,-8.8 -14.85,-13.06c-0.55,-1.02 -1.57,-1.62 -2.73,-1.62z" />
	</g>
</svg>